<?xml version="1.0" encoding="utf-8"?>
<!-- Generator: Adobe Illustrator 24.1.2, SVG Export Plug-In . SVG Version: 6.00 Build 0)  -->
<svg version="1.1" id="Highest_1_" xmlns="http://www.w3.org/2000/svg" xmlns:xlink="http://www.w3.org/1999/xlink" x="0px" y="0px"
	 viewBox="0 0 64 64" style="enable-background:new 0 0 64 64;" xml:space="preserve">
<style type="text/css">
	.st0{fill:#E36662;}
</style>
<path class="st0" d="M32,56L32,56c2.2,0,4-1.8,4-4V12c0-2.2-1.8-4-4-4l0,0c-2.2,0-4,1.8-4,4v40C28,54.2,29.8,56,32,56z"/>
<path class="st0" d="M49.6,29.6L49.6,29.6c1.6-1.6,1.6-4.1,0-5.7L34.8,9.2c-1.6-1.6-4.1-1.6-5.7,0l0,0c-1.6,1.6-1.6,4.1,0,5.7
	l14.8,14.8C45.5,31.2,48,31.2,49.6,29.6z"/>
<path class="st0" d="M14.2,29.6L14.2,29.6c-1.6-1.6-1.6-4.1,0-5.7L29,9.2c1.6-1.6,4.1-1.6,5.7,0l0,0c1.6,1.6,1.6,4.1,0,5.7
	L19.9,29.6C18.3,31.2,15.8,31.2,14.2,29.6z"/>
</svg>
